# xmcd
#
# Track frame offsets: 
#        150
#        13473
#        28479
#        44311
#        60736
#        74591
#        92459
#        108852
#        124302
#        142092
#        157813
#        175418
#        187418
#        204174
#        222991
#        236623
#        253286
#        268064
#        284108
#        302566
#
# Disc length: 4216 seconds
#
# Revision: 2
# Processed by: cddbd v1.5.2PL0 Copyright (c) Steve Scherf et al.
# Submitted via: ExactAudioCopy v0.99pb5
#
DISCID=41107614
DTITLE=Various Artist - Hott Country 057
DYEAR=2000
DGENRE=Country
TTITLE0=Randy Travis - I'll Be Right Here Loving You
TTITLE1=Tammy Cochran - So What
TTITLE2=Dixie Chicks - Without You
TTITLE3=Adam Gregory - Only I Know I Do
TTITLE4=Jason McCoy - Kind Of Like It's Love
TTITLE5=Carolyn Dawn Johnson - Georgie
TTITLE6=Kinleys - I'm In
TTITLE7=Jamie C. Taylor - Dynamite
TTITLE8=John Rich - I Pray For You
TTITLE9=Wilkinsons - 1999
TTITLE10=Kenny Chesney - I Lost It
TTITLE11=Rodney Carrington - More Of A MAn
TTITLE12=John Anderson - Nobody's Got It All
TTITLE13=Chad Brock and Shirley Myers - No One
TTITLE14=Gary Allan - Right Where I Need To Be
TTITLE15=Jason Mitchell - Blend
TTITLE16=Mark Wills - I Want to Know
TTITLE17=Craig Morgan - Paradise
TTITLE18=Rebecca Lynn Howard - I Don't  Paint Myself Into Corners
TTITLE19=Bill Engvall - Now That's Awesome
EXTD=
EXTT0=
EXTT1=
EXTT2=
EXTT3=
EXTT4=
EXTT5=
EXTT6=
EXTT7=
EXTT8=
EXTT9=
EXTT10=
EXTT11=
EXTT12=
EXTT13=
EXTT14=
EXTT15=
EXTT16=
EXTT17=
EXTT18=
EXTT19=
PLAYORDER=
